<svg width="300" height="300" viewBox="0 0 300 300" fill="none" xmlns="http://www.w3.org/2000/svg">
<rect width="300" height="300" fill="white"/>
<path d="M137.744 113.616H111.536L125.84 88.656H111.92L129.008 53.04H138.512L125.072 79.248H131.12L136.4 69.936H146L126.416 104.592H138.8L137.744 113.616ZM180.656 138.384H135.344L136.304 129.264H154.448L161.168 66.96H145.328L146.192 57.552H187.856L186.992 66.96H170.672L164.048 129.264H181.616L180.656 138.384ZM134.96 131.184L107.888 136.656L108.752 127.344L135.824 121.872L134.96 131.184Z" fill="#292929"/>
<path d="M270.475 55.056L269.611 64.08H228.043L214.699 86.448H261.547L255.979 139.92H200.106L203.851 104.496L198.379 113.616H190.507L216.331 64.08H198.379L199.435 55.056H270.475ZM210.667 130.224H247.435L250.986 95.952H214.314L210.667 130.224Z" fill="#292929"/>
<path d="M174.32 251.944H114.128L122.384 173.416H182.576L174.32 251.944ZM131.216 182.824L128.912 207.112H169.328L171.728 182.824H131.216ZM127.856 216.52L124.976 242.536H165.488L168.272 216.52H127.856Z" fill="#292929"/>
<path d="M220.171 204.04L219.115 213.928L211.339 216.52L207.115 256.648H195.882L193.771 247.72H199.05L201.931 219.688L192.33 222.952L193.291 213.16L202.987 209.896L205.003 189.736H195.882L196.938 180.712H205.963L207.307 167.656H216.522L215.179 180.712H222.763L221.707 189.736H214.219L212.395 206.632L220.171 204.04ZM257.803 178.696H234.667L231.979 204.136H265.387L264.427 212.68L264.043 215.752L263.755 218.824L251.275 234.184L262.314 256.84H254.827L245.706 241.096L233.035 256.84H217.291L226.314 170.152H267.979L264.907 200.008H246.283L244.747 191.368H256.555L257.803 178.696ZM254.827 215.752L255.115 212.68H231.211L226.699 254.824L241.674 234.088L232.267 217.768H243.307L247.339 226.12L254.827 215.752Z" fill="#292929"/>
<path fill-rule="evenodd" clip-rule="evenodd" d="M90 60L90 40L30 40L30 120H60.0001L90 60Z" fill="#292929"/>
<path fill-rule="evenodd" clip-rule="evenodd" d="M30 240L30 260L90 260L89.9998 180L59.9998 180L30 240Z" fill="#292929"/>
<path fill-rule="evenodd" clip-rule="evenodd" d="M30 195.308V195.362H44.687L90 104.737V104.683H75.313L30 195.308Z" fill="#F50000"/>
</svg>
